<?xml version="1.0" encoding="UTF-8"?>
<!DOCTYPE svg PUBLIC "-//W3C//DTD SVG 1.1//EN" "http://www.w3.org/Graphics/SVG/1.1/DTD/svg11.dtd">
<!-- Creator: CorelDRAW -->
<svg xmlns="http://www.w3.org/2000/svg" xml:space="preserve" width="38.3405mm" height="38.3405mm" version="1.1" style="shape-rendering:geometricPrecision; text-rendering:geometricPrecision; image-rendering:optimizeQuality; fill-rule:evenodd; clip-rule:evenodd"
viewBox="0 0 296.99 296.99"
 xmlns:xlink="http://www.w3.org/1999/xlink"
 xmlns:xodm="http://www.corel.com/coreldraw/odm/2003">
 <defs>
  <style type="text/css">
   <![CDATA[
    .str0 {stroke:#00AFEF;stroke-width:8.2;stroke-miterlimit:22.9256}
    .fil1 {fill:none}
    .fil0 {fill:#373435}
   ]]>
  </style>
 </defs>
 <g id="Layer_x0020_1">
  <metadata id="CorelCorpID_0Corel-Layer"/>
  <path class="fil0" d="M189.83 188.4l1.23 -0.08 9.31 -0.04 0 -0.2c3.46,-0.07 6.8,-0.32 11.74,-1.52l-0.02 16.62 -19.94 0.12c-0.98,-0.19 -1.66,-0.55 -2.11,-1.22l-0.21 -13.68zm-82.68 0l-1.23 -0.08 -9.31 -0.04 0 -0.2c-3.46,-0.07 -6.8,-0.32 -11.74,-1.52l0.02 16.62 19.94 0.12c0.98,-0.19 1.66,-0.55 2.11,-1.22l0.21 -13.68zm91.83 20.43c-3.2,0.15 -6.66,0.24 -9.33,-0.39 -0.23,-0.03 -0.42,-0.07 -0.57,-0.11 -0.57,-0.15 -1.07,-0.37 -1.52,-0.63 -0.54,-0.28 -1.01,-0.62 -1.4,-1.03 -3.22,-3.42 -1.09,-13.02 -1.92,-18.27l-35.75 -0.06 -35.75 0.06c-0.83,5.25 1.29,14.85 -1.92,18.27 -0.38,0.41 -0.86,0.75 -1.4,1.03 -0.45,0.27 -0.95,0.48 -1.52,0.63 -0.15,0.04 -0.34,0.08 -0.57,0.11 -2.67,0.63 -6.13,0.54 -9.33,0.39 -6.26,0.01 -13.33,-0.27 -14.79,-0.86 -5.7,-2.32 -3.42,-14.39 -3.58,-21.38 -0.12,-5.28 -2.08,-4.88 -4.57,-8.34 -1.71,-2.38 -2.84,-5.92 -4.07,-7.74 -0.27,-1.72 -0.52,-3.34 -0.69,-4.9l-0.27 0 0.12 -1.55c-0.23,-3.08 -0.09,-6.09 0.83,-9.53 0.31,-1.14 0.66,-2.14 1.04,-3.04 0.82,-2.04 2.13,-4.03 4.37,-7.06 0.23,-0.36 0.47,-0.72 0.69,-1.1 -0.49,-0.1 -0.97,-0.21 -1.45,-0.33 -5.86,-1.2 -9.59,-4.1 -10.21,-8.4l-0 -0.01c-0.04,-0.31 -0.07,-0.62 -0.08,-0.94l-0 -0.05 -0 -0.28 -0 -0.05 0 -0.01 0.01 -0.31c0.04,-1.18 0.29,-2.49 0.77,-3.93 2.8,-8.32 11.08,-6.15 19.65,-6.12 4.9,-30.2 2.48,-28.04 21.76,-31.31 7.07,-1.2 13.77,-2.05 20.45,-2.63 3.49,-0.33 6.98,-0.61 10.46,-0.82 3.45,-0.08 6.78,-0.1 10.05,-0.08 3.27,-0.02 6.61,0.01 10.05,0.08 3.48,0.21 6.98,0.49 10.46,0.82 6.68,0.57 13.38,1.43 20.45,2.63 19.28,3.26 16.86,1.11 21.76,31.31 8.57,-0.03 16.84,-2.19 19.65,6.12 0.49,1.44 0.73,2.75 0.77,3.93l0.01 0.31 0 0.01 -0 0.05 -0.01 0.28 -0 0.05c-0.01,0.32 -0.04,0.63 -0.08,0.94l-0 0.01c-0.62,4.3 -4.35,7.19 -10.21,8.4 -0.48,0.12 -0.96,0.23 -1.45,0.33 0.23,0.38 0.46,0.74 0.69,1.1 2.24,3.03 3.55,5.01 4.37,7.06 0.38,0.9 0.74,1.9 1.04,3.04 0.92,3.45 1.06,6.45 0.83,9.53l0.12 1.55 -0.27 0c-0.17,1.57 -0.42,3.18 -0.69,4.9 -1.24,1.83 -2.36,5.36 -4.07,7.74 -2.48,3.45 -4.45,3.05 -4.56,8.34 -0.16,6.99 2.12,19.05 -3.58,21.38 -1.45,0.59 -8.53,0.88 -14.79,0.86zm21.85 -53.07c-0.16,-0.48 -0.33,-0.97 -0.52,-1.47 -3.68,-9.86 -10.61,-12.46 -18.65,-13.03 -1.41,-0.05 -3.14,-0.1 -5.16,-0.14 -3.25,0.02 -6.6,0.18 -9.92,0.18 -6.13,0 -21.45,-0.13 -38.06,-0.23l-0.08 0c-16.61,0.09 -31.94,0.23 -38.06,0.23 -3.32,0 -6.67,-0.16 -9.92,-0.18 -2.01,0.04 -3.75,0.08 -5.16,0.14 -8.04,0.57 -14.97,3.16 -18.65,13.03 -0.19,0.51 -0.36,1 -0.52,1.47 -2.74,9.76 0.74,21.64 11.52,26.05 2.25,0.92 5.48,1.28 8.95,1.4l0 -0.11c1.93,0.05 3.86,0.09 5.8,0.12 2.82,-0.06 5.53,-0.16 7.75,-0.16 12.64,-0 25.47,0.14 38.33,0.24 12.86,-0.1 25.69,-0.24 38.33,-0.24 2.22,0 4.93,0.11 7.75,0.16 1.94,-0.03 3.87,-0.08 5.8,-0.12l0 0.11c3.47,-0.11 6.69,-0.47 8.95,-1.4 10.78,-4.41 14.26,-16.29 11.52,-26.05zm-12.75 -19.23c-0.02,-0.64 -0.07,-1.33 -0.15,-2.06 -0.57,-4.14 -1.33,-8.26 -2.1,-12.36 -0.54,-2.65 -1.06,-5.19 -1.44,-7.33 -1.08,-6.14 -1.52,-9.84 -2.06,-12.14l-0.02 -0.1 -0.05 -0.19 -0.01 -0.02c-0.16,-0.64 -0.34,-1.17 -0.54,-1.61l-0 -0 -0.08 -0.17 -0.01 -0.02 -0.04 -0.07c-0.94,-1.73 -2.5,-1.8 -6.26,-2.47 -2.92,-0.52 -5.81,-1.02 -8.68,-1.47l-0.45 -0.07 -0.26 -0.04 -0.45 -0.07 -0.26 -0.04 -0.46 -0.07 -0.26 -0.04 -0.46 -0.07 -0.26 -0.04 -0.46 -0.07 -0.26 -0.04 -0.46 -0.07 -0.26 -0.04 -0.46 -0.07 -0.26 -0.04 -0.46 -0.07 -0.26 -0.04c-10.49,-1.49 -20.94,-2.43 -32.21,-2.47l-0.47 0c-11.27,0.03 -21.72,0.98 -32.2,2.47l-0.26 0.04 -0.46 0.07 -0.26 0.04 -0.46 0.07 -0.26 0.04 -0.46 0.07 -0.26 0.04 -0.46 0.07 -0.26 0.04 -0.46 0.07 -0.26 0.04 -0.46 0.07 -0.26 0.04 -0.45 0.07 -0.26 0.04 -0.45 0.07c-2.87,0.46 -5.76,0.95 -8.68,1.47 -3.76,0.67 -5.32,0.74 -6.26,2.47l-0.04 0.07 -0.01 0.02 -0.08 0.17 -0 0c-0.2,0.44 -0.37,0.96 -0.54,1.61l-0.01 0.02 -0.05 0.19 -0.02 0.1c-0.53,2.3 -0.98,6 -2.06,12.14 -0.37,2.14 -0.9,4.68 -1.44,7.33 -0.77,4.1 -1.53,8.22 -2.1,12.36 -0.07,0.73 -0.12,1.42 -0.15,2.06 1.96,-0.2 4,-0.36 6.1,-0.49 8.25,-0.56 17.97,-0.53 27.54,-0.37l0.2 0 0.08 0c8.93,0.14 17.79,0.38 25.6,0.41l0.14 0c7.81,-0.02 16.67,-0.27 25.6,-0.41l0.08 -0 0.2 -0c9.57,-0.16 19.29,-0.19 27.54,0.37 2.11,0.13 4.15,0.29 6.1,0.49zm7.53 1.6c1.28,-0.01 2.61,-0.03 3.87,-0.14 1.17,-0.13 2.38,-0.34 3.36,-0.64 1.02,-0.36 1.87,-0.88 2.46,-1.64 0.42,-0.59 0.68,-1.28 0.8,-2l0 -0.01 0 -0.03c0.06,-0.5 0.06,-1.05 -0.01,-1.67 -0.02,-0.19 -0.05,-0.38 -0.09,-0.56 -0.21,-0.86 -0.61,-1.67 -1.18,-2.28 -2.18,-2.13 -6.65,-1.5 -10.51,-1.14l-0.02 0 -0.01 0c-0.53,0.06 -1.05,0.12 -1.53,0.17 -0.15,0.63 -0.21,1.29 -0.21,1.96 0.03,0.62 0.08,1.32 0.16,2.05 0.18,1.27 0.49,2.56 0.78,3.79 0.37,1.03 0.87,1.81 1.54,2.05 0.11,0.04 0.31,0.07 0.59,0.09zm-133.67 -0.09c0.67,-0.24 1.17,-1.02 1.54,-2.05 0.29,-1.24 0.6,-2.52 0.78,-3.79 0.08,-0.73 0.13,-1.43 0.16,-2.05 -0,-0.67 -0.06,-1.32 -0.21,-1.96 -0.48,-0.05 -0.99,-0.11 -1.53,-0.17l-0.01 -0 -0.02 -0c-3.86,-0.35 -8.33,-0.99 -10.51,1.14 -0.57,0.62 -0.97,1.42 -1.18,2.28 -0.04,0.18 -0.07,0.36 -0.09,0.56 -0.07,0.62 -0.07,1.17 -0.01,1.67l0 0.03 0 0.01c0.12,0.72 0.38,1.41 0.8,2 0.58,0.77 1.44,1.29 2.46,1.64 0.99,0.31 2.19,0.51 3.36,0.64 1.26,0.11 2.59,0.13 3.87,0.14 0.27,-0.02 0.48,-0.05 0.59,-0.09zm12.19 18.19c9.89,-4.23 14.67,10.57 6,13.85 -9.69,3.66 -14.87,-10.06 -6,-13.85zm-9.6 9.37c2.73,15.02 28.24,12.6 25.2,-4.87 -2.79,-16.09 -28.36,-12.45 -25.2,4.87zm108.2 0c-3.21,-10.59 12.12,-13.28 14.41,-4.74 2.69,10.07 -11.74,13.54 -14.41,4.74zm19.4 1.4c5.4,-15.99 -19.18,-23.78 -24.35,-8.14 -5.42,16.42 18.9,24.27 24.35,8.14z"/>
  <circle class="fil1 str0" cx="148.49" cy="148.49" r="144.39"/>
 </g>
</svg>
