<?xml version="1.0" encoding="UTF-8"?>
<!DOCTYPE svg PUBLIC "-//W3C//DTD SVG 1.1//EN" "http://www.w3.org/Graphics/SVG/1.1/DTD/svg11.dtd">
<!-- Creator: CorelDRAW -->
<svg xmlns="http://www.w3.org/2000/svg" xml:space="preserve" width="38.3405mm" height="38.3405mm" version="1.1" style="shape-rendering:geometricPrecision; text-rendering:geometricPrecision; image-rendering:optimizeQuality; fill-rule:evenodd; clip-rule:evenodd"
viewBox="0 0 449.59 449.59"
 xmlns:xlink="http://www.w3.org/1999/xlink"
 xmlns:xodm="http://www.corel.com/coreldraw/odm/2003">
 <defs>
  <style type="text/css">
   <![CDATA[
    .str0 {stroke:#00AFEF;stroke-width:12.41;stroke-miterlimit:22.9256}
    .fil1 {fill:none}
    .fil0 {fill:#373435}
   ]]>
  </style>
 </defs>
 <g id="Layer_x0020_1">
  <metadata id="CorelCorpID_0Corel-Layer"/>
  <path class="fil0" d="M214.53 193.39c26.27,-9.41 46.29,17.1 20.9,25.63 -25.32,8.51 -50.54,-15.02 -20.9,-25.63zm-9.77 -20.65c1.65,5.79 13.75,5.26 11.72,-3.84 -1.92,-8.6 -14.35,-5.39 -11.72,3.84zm13.19 27.1c1.42,13.51 13.8,10.72 11.91,-1.06 -7.44,-1.57 -5.5,-2.19 -11.91,1.06zm13.26 -27.1c1.65,5.79 13.75,5.26 11.72,-3.84 -1.92,-8.6 -14.35,-5.39 -11.72,3.84zm-72.55 116.73c6.89,2.94 10.2,-3.24 18.5,3.46 8.24,6.65 2.32,14.28 12.99,14.23 7.27,-20.73 -31.58,-38.15 -31.49,-17.7zm101.23 18.15c8.88,-3.27 3.75,-9.15 11.45,-15.06 8.99,-6.9 11.14,0.35 19.02,-3.49 -3.8,-22.65 -45.7,5.45 -30.47,18.55zm37.69 -13.98c-17.5,38.84 -71.79,24.34 -54.22,-14.5 17.03,-37.64 71.77,-24.45 54.22,14.5zm-149.27 -8.34c-5.57,-41.53 54.2,-35.02 59.34,2.3 5.87,42.68 -54.43,34.27 -59.34,-2.3zm7.34 29.15c20.82,17.03 28.39,6.58 53.38,9.5 11.33,1.33 19.55,1.29 31.1,-0.06 13.96,-1.63 17.52,2.52 30.01,0.89 10.48,-1.37 17.18,-5.21 22.1,-9.9 11.21,-10.66 17.88,-23.99 16.69,-39.64 -0.72,-9.53 -5.56,-13.84 -14.36,-22.48 -9.49,-9.32 -6.68,-34.19 -26.3,-33.92 -0.53,12.15 9.77,9.45 12.79,28.91 -21.41,0.46 -33.7,9.23 -41.83,21.07 -15.58,22.67 -2.46,39.53 -0.86,47.16l-28.15 -0.25c1.41,-8.84 6.87,-10.87 6.46,-24.17 -0.97,-31 -24.16,-39.11 -44.01,-44.1l-5.13 -1.76c4.38,-20.4 13.06,-12.82 12.87,-26.82 -12.38,-0.62 -17.1,11.02 -20.77,22.5 -4.26,13.31 -0.31,6.67 -8.95,13.93 -18.13,15.22 -12.01,45.25 4.97,59.15zm35.61 -112.69c-8.49,-14.03 -15.35,-30.94 -3.8,-49.25 7.14,-11.33 20.35,-21.82 39.08,-20.91 42.52,2.07 49.57,56.03 29.18,69.55 -7.99,-11.77 -13.71,-19.01 -33.35,-18.27 -22.37,0.85 -26.57,14.43 -31.11,18.88zm75.85 -63.53c15.72,-9.95 28.78,19.64 7.37,23.03 -5.62,-9.86 -11.8,-20.23 -7.37,-23.03zm-94.77 23.26c-5.97,-2.16 -10.64,-4.15 -9.74,-13.49 1.32,-13.64 27.13,-17.69 17.9,-0.64 -3.08,5.69 -3.15,9.84 -8.16,14.13zm-26.06 87.71c2.27,-15.22 -5.71,-1.62 -12,-13.84 -8.63,-20.34 31.06,-30.61 48.96,-32.06 5.52,11.06 23.17,27.05 43.31,26.2 23.71,-1.01 28.24,-18.19 41.68,-26.75 13.15,4.86 57.19,11.69 45.78,31.97 -6.44,12.41 -10.91,-0.21 -12.22,13.05 4.7,2.47 8.24,1.86 11.53,0.32 12.52,-5.83 17.28,-22.19 5.63,-32.72 -8.5,-7.68 -21.08,-13.46 -46.44,-20.15l3 -23.82c38.86,-16.43 13.39,-56.1 -17.72,-37.67 -20.31,-13.05 -44.34,-11.8 -66.7,0.13 -38.86,-20.54 -51.6,29.87 -18.83,36.55l3.43 24.39c-20.37,7.45 -56.54,11.69 -51.2,40.11 2.28,12.13 11.36,14.33 21.77,14.29z"/>
  <circle class="fil1 str0" cx="224.79" cy="224.79" r="218.59"/>
 </g>
</svg>
