<?xml version="1.0" encoding="UTF-8"?>
<!DOCTYPE svg PUBLIC "-//W3C//DTD SVG 1.1//EN" "http://www.w3.org/Graphics/SVG/1.1/DTD/svg11.dtd">
<!-- Creator: CorelDRAW -->
<svg xmlns="http://www.w3.org/2000/svg" xml:space="preserve" width="38.3405mm" height="38.3405mm" version="1.1" style="shape-rendering:geometricPrecision; text-rendering:geometricPrecision; image-rendering:optimizeQuality; fill-rule:evenodd; clip-rule:evenodd"
viewBox="0 0 351.47 351.47"
 xmlns:xlink="http://www.w3.org/1999/xlink"
 xmlns:xodm="http://www.corel.com/coreldraw/odm/2003">
 <defs>
  <style type="text/css">
   <![CDATA[
    .str0 {stroke:#00AFEF;stroke-width:9.7;stroke-miterlimit:22.9256}
    .fil1 {fill:none}
    .fil0 {fill:#373435}
   ]]>
  </style>
 </defs>
 <g id="Layer_x0020_1">
  <metadata id="CorelCorpID_0Corel-Layer"/>
  <g id="_1459109780000">
   <path class="fil0" d="M218 138.24c10.36,2 10.4,6.58 10.41,16.54 0,3.16 0.41,10.81 -1.95,13.29 -0.91,0.95 -2.25,1.49 -3.42,2.03 -1.79,0.81 -3.4,1.67 -5.02,2.75 -0.16,8.04 0.18,16.28 0.23,24.33 0.03,4.64 0.04,9.3 -0.11,13.94 -0.08,2.54 -0.15,6.48 -0.83,8.91 -1.02,3.63 -1.75,4.89 -5.01,6.5 -2.73,1.35 -3.47,5.52 -3.99,8.18 -1.29,6.58 -0.67,15.72 -6.54,20.09l-0.06 0.04 -0.07 0.03c-6.92,3.6 -53.77,2.66 -62.43,0.69l-0.36 -0.08 -0.21 -0.31c-4.45,-6.75 -4.33,-15.07 -6.42,-22.64 -2.65,-9.59 -4.04,-4.79 -6.4,-7.28 -1.64,-1.73 -1.97,-7.49 -2.13,-9.71 -0.76,-10.51 -0.67,-21.49 -0.67,-32.03l0 -41.49c0,-3.82 -0.22,-12.56 3.03,-15.37 0.85,-0.74 1.89,-1.15 2.78,-1.83 1.3,-0.99 2.13,-2.42 2.78,-3.89 3.38,-7.69 1.36,-16.19 6.09,-24.28l0.18 -0.3 0.33 -0.11c7.47,-2.46 56.85,-3.17 63.2,0.15l0.07 0.03 0.06 0.04c6.84,5.1 5.24,14.89 7.23,22.45 2.76,10.46 8.38,2.69 9.23,19.31zm-78.89 -15.72l62.13 0.53 -4.22 -20.51c-2.73,-0.78 -6.98,-0.97 -9.66,-1.11 -5.35,-0.28 -10.74,-0.31 -16.09,-0.27 -9.14,0.07 -18.92,0.22 -28.04,1.08 -1.94,4.61 -3.8,14.93 -4.12,20.28zm79.91 41.4c0.66,-0.24 1.38,-0.49 1.61,-0.87 0.85,-1.39 0.75,-6.68 0.74,-8.26 -0.01,-1.41 0.29,-5.49 -0.03,-6.69 -0.22,-0.81 -1.47,-1.47 -2.43,-1.92 -0.56,0.79 -0.6,0.51 -0.95,2.48 -0.79,4.52 -0.82,10.89 1.07,15.26zm-9.12 55.39c2.46,-5.01 0.78,-74.98 0.28,-87.87 -5.64,-0.71 -11.69,-0.94 -17.34,-1.18 -8.76,-0.38 -17.54,-0.58 -26.3,-0.6 -3.74,-0.01 -33.65,0.07 -35.37,2.81 -2.12,3.37 -0.8,43.74 -0.81,51.05 -0.01,8.58 -0.35,17.35 -0.08,25.91 0.09,2.82 0.23,8.21 2.29,10.42 1.89,2.03 6.01,1.91 8.53,1.87 6.69,-0.11 13.29,-0.62 20.01,-0.62 9.8,0 41.2,2.85 48.79,-1.79zm-43.35 -44.94c0.09,-4.37 0.29,-8.7 0.29,-13.08 0,-5.07 -0.49,-3.74 1.81,-7.76l0.38 -0.66 0.72 0.24c2.08,0.69 4.1,1.53 4.52,3.92 0.33,1.91 -0.15,5.36 -0.15,7.44l0.49 17.39c3.75,2.82 10.87,9.01 11.4,13.74 0.21,1.85 -0.9,3.07 -2.79,2.74 -2.03,-0.35 -4.37,-2.34 -5.81,-3.72 -2.82,-2.72 -6.78,-6.29 -8.84,-9.61 -1.72,-2.77 -2.01,-5.36 -2.03,-8.56 -0.24,-0.69 -0.24,-1.4 0.02,-2.08zm-24.32 -0.3c0.1,0.15 0.29,0.34 0.37,0.42l0.58 0.53 -0.43 0.66c-3.44,5.3 -5.76,4.68 -9.01,0.02l-0.44 -0.64 0.55 -0.55c0.02,-0.02 0.12,-0.94 0.34,-1.3 0.77,-1.25 3.19,-1.16 4.44,-1.13 0.75,0.02 2.76,-0.06 3.45,0.11 0.92,0.22 1.02,1.28 0.25,1.8 -0.02,0.02 -0.07,0.04 -0.11,0.07zm60.49 -1.8c4.59,0.43 2.18,0.59 4.26,2.23l0.71 0.56 -0.54 0.72c-1.13,1.5 -3.51,4.78 -5.74,3.28 -1.14,-0.77 -1.65,-2.3 -2.89,-3.04l-1.13 -0.67 1.02 -0.84c0.07,-0.06 0.27,-0.21 0.3,-0.31 -0.11,-0.35 -1.23,-1.02 -0.32,-1.87 0.67,-0.62 3.53,-0.14 4.34,-0.07zm-63.78 56.54l4.11 20.67 55.1 -0.56c1.85,-6.3 3.95,-14.04 3.26,-20.61l-62.47 0.5z"/>
   <path class="fil0" d="M137.81 227.89l64.42 -0.51c1.01,7.09 -1.38,15.67 -3.39,22.46l-56.56 0.57 -4.48 -22.52zm64.82 -54.7c-7.07,-0.67 -1.22,0.04 -3.64,2.04 2.82,1.67 2.53,6.5 7.41,0 -2.35,-1.86 0.43,-1.64 -3.77,-2.04zm-68.12 1.98c2.37,3.4 4.03,5.3 7.47,0 -2.63,-2.42 3.31,-2.02 -3.36,-2.16 -5.14,-0.11 -3.19,1.24 -4.11,2.16zm32.96 -0.6c-0.26,0.57 -0.26,1.13 -0.02,1.72 0.02,7.15 1.5,8.93 10.58,17.67 9.08,8.74 11.13,-0.18 -4.35,-11.61l-0.5 -17.86c0,-7.27 1.68,-8.7 -3.73,-10.49 -1.96,3.43 -1.69,1.57 -1.69,7.3 0,5.92 -0.22,10.09 -0.29,13.27zm-38.04 8.95c0.01,-7.74 -1.37,-47.86 0.95,-51.54 3.1,-4.94 66.43,-3.27 80.69,-1.35 0.73,16.74 2.19,85.86 -0.5,89.35 -7.6,5.01 -38.04,2.05 -49.47,2.05 -35.66,0 -31.72,8.72 -31.68,-38.5zm89.12 -18.41c-2.22,-4.32 -2.47,-11.18 -1.52,-16.61 0.49,-2.78 0.69,-2.08 1.52,-3.5 4.88,2.39 3.68,2 3.74,9.79 0.09,10.98 -1.17,8.9 -3.74,10.32zm-80.41 -41.67c0.14,-5.47 2.47,-17.79 4.46,-22.07 10.56,-1.03 47.47,-2.16 55.21,0.45l4.57 22.17 -64.23 -0.55zm78.96 48.92c9.3,-6.41 10.4,-0.86 10.38,-17.57 -0.01,-10.76 -0.44,-14.04 -10.38,-15.76 -0.73,-17.84 -6.13,-8.08 -9.23,-19.85 -2.39,-9.06 -0.39,-17.1 -6.89,-21.95 -6.13,-3.2 -55.4,-2.43 -62.49,-0.1 -4.62,7.9 -2.84,16.9 -6.04,24.19 -4.12,9.37 -8.5,-0.16 -8.5,20.72l0 41.49c-0.02,64.25 3.73,29.09 9.17,48.77 2.64,9.56 1.82,15.58 6.3,22.38 9.35,2.12 55.55,2.64 61.8,-0.61 5.39,-4.01 4.54,-11.1 6.19,-19.52 2.66,-13.57 6.3,-5.07 9.01,-14.75 1.7,-6.06 0.48,-38.39 0.68,-47.43z"/>
  </g>
  <circle class="fil1 str0" cx="175.73" cy="175.73" r="170.88"/>
 </g>
</svg>
