<?xml version="1.0" encoding="UTF-8"?>
<!DOCTYPE svg PUBLIC "-//W3C//DTD SVG 1.1//EN" "http://www.w3.org/Graphics/SVG/1.1/DTD/svg11.dtd">
<!-- Creator: CorelDRAW -->
<svg xmlns="http://www.w3.org/2000/svg" xml:space="preserve" width="38.3405mm" height="38.3405mm" version="1.1" style="shape-rendering:geometricPrecision; text-rendering:geometricPrecision; image-rendering:optimizeQuality; fill-rule:evenodd; clip-rule:evenodd"
viewBox="0 0 364.14 364.14"
 xmlns:xlink="http://www.w3.org/1999/xlink"
 xmlns:xodm="http://www.corel.com/coreldraw/odm/2003">
 <defs>
  <style type="text/css">
   <![CDATA[
    .str0 {stroke:#00AFEF;stroke-width:10.05;stroke-miterlimit:22.9256}
    .fil1 {fill:none}
    .fil0 {fill:#373435}
   ]]>
  </style>
 </defs>
 <g id="Layer_x0020_1">
  <metadata id="CorelCorpID_0Corel-Layer"/>
  <g id="_1459155849568">
   <path class="fil0" d="M197.51 108.84c4.36,-0.44 12.38,-1.48 16.3,-0.01 1.63,0.61 2.98,1.65 4.32,2.74 1.99,1.61 3.91,3.19 5.98,4.7 12.03,-3.11 24.15,-4.82 36.6,-4.6l0.31 0.01 0.22 0.23c1.68,1.76 1.88,3.15 1.17,5.35l-0.08 0.24 -0.2 0.15c-2.61,1.9 -5.78,1.36 -8.68,2.13l-0.05 0.01 -29.74 4.07c-2.09,12.28 -9.89,12.79 -20.75,14.36 -1.22,1.67 -1.41,2.07 -1.8,4.06 -0.32,1.64 -3.71,3.67 -4.97,4.52 -3.69,2.5 -8.32,3.43 -12.23,5.7 -11.31,6.56 0.74,21 -16.75,18.63l-0.93 -0.13 0.32 -0.88c0.48,-1.34 1.13,-2.79 2.16,-3.81 0.57,-0.56 1.21,-0.87 1.76,-1.38 1.56,-1.43 2.14,-6.55 2.4,-9.23l-10.21 1.32c-0.11,4.68 -1.34,10.09 -2.3,14.61 -1.28,6.03 -2.67,12.09 -3.47,18.2 -1.13,8.59 -1.91,21.51 9.32,23.26l0.14 0.02 0.12 0.07c1.66,0.97 7.52,2.24 9.69,2.85 6.44,1.82 5.83,0.63 9.5,5.97l0.03 0.04 0.02 0.04c3.67,7.24 3.76,27.89 -0.06,35.04l-0.02 0.04 -0.03 0.04c-6.86,9.68 -29.84,5.3 -40.31,5.3 -4.58,0 -9.14,0.15 -13.71,0.32 -2.97,0.12 -6.07,0.28 -9.04,0.07 -5.78,-0.4 -9.27,-2.43 -13.64,-6.21l-0.25 -0.22 -0.01 -0.33c-0.22,-7.57 -0.55,-15.17 -0.67,-22.74 -0.05,-3.38 -0.16,-7.65 0.56,-10.96 0.5,-2.3 1.39,-3.82 3.05,-5.47 1.89,-1.88 4.04,-3.57 6,-5.44l-0.86 -49.35c-2.89,-2.32 -6.33,-2.98 -8.86,-5.88 -4.46,-5.08 -5.71,-16.73 -6.34,-23.12 -1.22,-12.34 2.71,-19.43 14.49,-23.36 6.07,-2.03 12.99,-3.02 19.32,-3.92 8.75,-1.24 17.49,-2.33 26.22,-3.8 7.64,-1.29 13.46,-1.79 21.24,-1.35 2.28,0.13 8.97,0.13 10.79,1.68 0.75,0.64 1.17,1.62 1.6,2.49 0.69,1.39 1.43,2.64 2.32,3.89zm-86.39 39.03c0.84,2.51 1.92,5.21 4.58,6.14 1.15,0.4 2.37,0.64 3.54,1.02 1.86,0.62 3.51,1.5 5.11,2.63l0.34 0.24 -0.02 0.42c-0.53,9.6 -1.97,18.87 -1.81,28.55 0.14,8.31 2.71,19.67 0.73,27.51l-0.03 0.12 -0.07 0.1c-6.65,10.49 -9.1,-0.29 -8.26,16.33 13.98,-0.09 51.05,-3.04 61.41,1.72l0.78 0.36 -0.45 0.73c-1.04,1.67 -1.78,2.86 -3.78,3.41 -2.54,0.71 -7.24,0.47 -9.89,0.44l-48 -0.04c-0.31,4.06 -0.71,8.81 -0.32,12.77 0.19,1.88 0.6,4.1 2.37,5.14 1.79,1.05 5.03,0.98 7.04,0.94 4.6,-0.1 9.16,-0.39 13.78,-0.41 11.06,-0.04 31.38,2.74 41.18,-1.36 1.9,-1.88 1.94,-11.45 1.92,-14.07 -0.04,-5.42 -0.12,-10.73 -0.69,-16.12 -5.9,-2.1 -11.61,-3.59 -17.68,-5.07 -3.03,-0.74 -7.14,-1.63 -9.4,-3.91 -2.54,-2.57 -2.88,-6.94 -3.03,-10.35 -0.33,-7.72 0.22,-16 0.49,-23.73 0.07,-2.1 0.12,-7.13 1.31,-8.98 0.33,-0.51 0.78,-0.93 1.14,-1.42 0.64,-0.88 1.09,-1.98 1.46,-3 4.27,-11.88 -4.55,-15.87 12.79,-18.67 4.14,-0.67 9.7,-1.18 13.65,-2.49 1.69,-0.56 3.32,-1.36 4.91,-2.17 2.75,-1.4 5.48,-2.88 8.22,-4.32 -0.52,-5.25 -3.67,-28.39 -4.87,-30.29 -4.96,-7.91 -51.47,2.63 -60.33,4.09 -4.3,0.71 -11.39,1.19 -15.21,3.05 -4.14,2.02 -5.51,6.26 -6.27,10.5l17.46 -2.08 -0.45 1.17c-0.43,1.12 -0.81,2.29 -0.99,3.48 -0.09,0.6 -0.09,1.29 -0.67,1.65 -0.44,0.27 -1.49,0.28 -2.01,0.34 -1.71,0.19 -3.41,0.55 -5.08,0.96 -1.72,0.43 -3.47,0.75 -5.24,0.86 -0.26,0.02 -1.34,0.02 -1.74,0.07 -0.05,0.6 -0.03,3.11 -0.04,4.14 2.11,1.63 4.42,1.77 7.04,1.49 3.54,-0.38 6.87,-1.21 10.49,-1.4l1.23 -0.06 -0.5 1.12c-0.19,0.44 -1.27,3.39 -0.97,3.61 0.79,0.58 -0.02,1.49 -0.74,1.32 -0.25,-0.02 -0.55,0.01 -0.8,0.04 -1.73,0.2 -3.7,0.82 -5.35,1.36 -4.15,1.36 -4.22,-0.49 -8.31,2.13zm87.48 -32.47c-1.09,5.8 -0.08,10.89 2.57,16.13 5.99,-0.42 9.67,-1.55 15.06,-3.74l-0.44 -11.26c-5.64,-2.2 -11.29,-1.77 -17.2,-1.13z"/>
   <path class="fil0" d="M197.97 114.7c7.16,-0.78 12.75,-1.11 18.56,1.31l0.48 12.27c-4.93,2.03 -8.51,3.54 -16.28,4.03 -3.03,-5.8 -4.07,-11.33 -2.76,-17.61zm-15.93 125.84c0.02,2.95 0.02,12.76 -2.26,14.72 -9.83,4.21 -29.23,1.43 -41.6,1.47 -23.28,0.08 -25.42,4.87 -23.57,-19.94l48.7 0.04c10.6,0.13 10.89,-0.06 13.02,-3.5 -10.07,-4.62 -47.73,-1.64 -61.82,-1.65 -0.97,-18.07 1.91,-7.35 8.34,-17.49 1.85,-7.35 -0.61,-18.4 -0.76,-27.32 -0.18,-10.68 1.25,-18.52 1.81,-28.6 -7.7,-5.44 -10.32,-0.47 -13.69,-10.72 4.97,-3.35 4.7,-1.14 8.97,-2.53 11.46,-3.75 3.86,2.02 7.39,-5.91 -8.12,0.42 -13.64,3.47 -18.33,-0.49 0.4,-7.95 -1.86,-3.8 7.59,-6.16 10.15,-2.53 5.45,1.27 8.23,-5.97l-17.22 2.05c2.27,-14.16 8.58,-12.92 22.26,-15.17 12.84,-2.11 55.85,-12.11 61.09,-3.74 1.24,1.98 4.7,27.25 5.02,31.12 -15.64,8.21 -11.71,6.74 -27.45,9.28 -16.69,2.7 -7.82,5.99 -12.2,18.18 -2.41,6.71 -3.44,1.1 -3.86,13.17 -1.56,44.19 -2.11,31.05 29.56,42.49 0.66,5.86 0.7,10.79 0.75,16.67zm-72.6 15.6c9.92,8.56 13.31,5.63 35.9,5.63 11.26,-0 33.15,4.25 39.69,-4.98 3.67,-6.87 3.63,-27.28 0.05,-34.35 -3.23,-4.71 -1.91,-3.64 -9.09,-5.67 -3.17,-0.9 -8.64,-2.21 -9.86,-2.93 -20.98,-3.26 -4.17,-41.85 -4.18,-57.47l11.79 -1.53c-1.49,15.45 -3.64,7.79 -6.44,15.54 16.8,2.28 4.29,-11.59 16.26,-18.53 4.28,-2.49 8.62,-3.26 12.19,-5.67 7.88,-5.34 2.26,-2.54 6.77,-8.66 12.34,-1.8 18.71,-2.47 20.51,-14.33l30.24 -4.14c2.62,-0.7 6.07,-0.3 8.43,-2.01 0.49,-1.54 0.72,-2.81 -1,-4.6 -12.64,-0.23 -24.63,1.51 -36.74,4.66 -11.49,-8.3 -7.33,-9.35 -26.8,-7.46 -5.6,-7.58 -0.41,-7.31 -14.39,-8.09 -8.4,-0.47 -13.14,0.01 -21.07,1.34 -39.32,6.64 -62.01,3.78 -59.4,30.26 2.75,27.85 8.6,23.11 15.2,28.71l0.88 50.03c-11.03,10.69 -10.16,3.21 -8.94,44.26z"/>
  </g>
  <circle class="fil1 str0" cx="182.07" cy="182.07" r="177.04"/>
 </g>
</svg>
