<?xml version="1.0" encoding="UTF-8"?>
<!DOCTYPE svg PUBLIC "-//W3C//DTD SVG 1.1//EN" "http://www.w3.org/Graphics/SVG/1.1/DTD/svg11.dtd">
<!-- Creator: CorelDRAW -->
<svg xmlns="http://www.w3.org/2000/svg" xml:space="preserve" width="38.3405mm" height="38.3405mm" version="1.1" style="shape-rendering:geometricPrecision; text-rendering:geometricPrecision; image-rendering:optimizeQuality; fill-rule:evenodd; clip-rule:evenodd"
viewBox="0 0 470.53 470.53"
 xmlns:xlink="http://www.w3.org/1999/xlink"
 xmlns:xodm="http://www.corel.com/coreldraw/odm/2003">
 <defs>
  <style type="text/css">
   <![CDATA[
    .str0 {stroke:#00AFEF;stroke-width:12.99;stroke-miterlimit:22.9256}
    .fil1 {fill:none}
    .fil0 {fill:#373435}
   ]]>
  </style>
 </defs>
 <g id="Layer_x0020_1">
  <metadata id="CorelCorpID_0Corel-Layer"/>
  <path class="fil0" d="M291.2 305.17l5.56 -0.2c0.51,3.07 1.09,4.28 0.97,7.67 -0.26,7.89 -0.05,4.41 -2.44,7.9 -6.55,-1.18 -5.06,1.94 -5.89,-5.98 -0.43,-4.14 0.36,-6.74 1.79,-9.39zm-92.13 6.99c0.97,-0.27 5.55,1.16 7.11,-10.95 0.12,-0.91 0.68,-1.01 1.08,-1.48 8.36,8.89 5.71,13.49 -2.26,20.21 -18.59,1.52 -21.06,-16.1 -8.73,-21.14 0.6,7.07 -0.79,7.73 2.8,13.35zm-6.03 -20.76c-23.09,11.12 -9.27,43.83 14.47,35.64 22.89,-7.89 10.45,-47.65 -14.47,-35.64zm58.45 13.95c10.02,3.36 8.58,15.05 6.27,27.36l-6.72 3.01 0.45 -30.36zm-103.6 30.27c-7.98,-4.81 -10.55,-25.36 2.29,-30.41l-0.19 25.71c-0.64,3.59 -1.3,3.37 -2.1,4.7zm24.58 -102.73c-4.5,7.93 -13.75,10.1 -19.06,23.66 -5.1,13.03 -2.43,25.27 -3.86,39.58 -11.86,6.56 -14.72,4.87 -15.16,22.45 -0.43,17.24 0.09,15.77 9.41,24.67 29.05,2.56 64.38,0.6 94.18,0.77 18.65,0.11 27.78,0.3 28.61,-19.15 0.98,-22.97 -0.77,-21.7 -15.61,-28.75 -0.07,-16.88 1.55,-31.75 -6.4,-45.44 -4.4,-7.57 -16.1,-21.91 -26.27,-17.67 2.18,10.81 22.85,11.49 24.81,39.05 1,14.11 1.24,50.18 -0.44,64.09l-83.78 -0.1c-2.2,-9.61 -1.63,-50.84 -0.98,-62.54 1.59,-28.69 19.07,-26.87 22.34,-38.8 -4.44,-3.74 0.55,-1.86 -7.79,-1.83zm14.32 18.55c3.77,4.76 2.15,13.73 12.35,14.85 5.96,0.65 8.3,-1.13 10.65,-4.47 2.04,-2.89 -0.21,-3.36 5.66,-9.86 2.93,34.64 -38.08,24.32 -28.66,-0.53zm12.28 7.08c-5,-7.11 -3.51,-82.89 0.08,-93.17 7.84,-22.43 33.84,-39.18 65.81,-29.05 29.08,9.21 32.59,30.36 32.56,65.66l0.03 73.71c0.36,27.99 0.74,18.8 -4.31,21.59 -5.34,-4.05 -2.82,2.15 -3.76,-9.15l0.22 -34.97c0,-48.55 8.45,-98.74 -26.39,-109.42 -29,-8.89 -55.33,6.4 -58.45,31.63 -1.56,12.57 -0.48,31.78 -0.48,45.03 0.01,22.69 3.8,35.75 -5.33,38.14zm-9.34 -89.31c-1.18,13.65 1.63,60.34 -2.1,68.39 -3.01,6.48 -11.72,7.86 -10.12,23.22 3.83,36.82 61.32,18.48 43.52,-13.23 -7.77,-13.85 -9.16,-1.17 -8.89,-25.08 0.13,-11.68 -0.04,-23.32 -0.02,-34.99 0.09,-53.99 67.28,-46.85 69.79,-7.92 2.65,41.23 0.79,96.86 -0.03,139.04 -7.8,5.96 -5.99,-1.91 -6.61,8.19 9.45,3.82 30.87,0.15 40.79,1.32 8.99,1.06 6.57,-0.48 8.99,6.87 -14.92,6.8 -45.35,-6.43 -58.16,4.1 3.65,8.26 8.26,4.88 30.45,4.86 12.95,-0.01 26.01,0.52 38.89,-0.73 -1.01,-8.7 -4.54,-14.22 -8.77,-21.85l-21.71 -1.18c-3.76,-39.42 8.29,-142.91 -8.82,-169.04 -18.91,-28.89 -65.95,-34.77 -91.95,-8.88 -11.11,11.07 -8.9,15.61 -15.25,26.91z"/>
  <circle class="fil1 str0" cx="235.27" cy="235.27" r="228.77"/>
 </g>
</svg>
