<?xml version="1.0" encoding="UTF-8"?>
<!DOCTYPE svg PUBLIC "-//W3C//DTD SVG 1.1//EN" "http://www.w3.org/Graphics/SVG/1.1/DTD/svg11.dtd">
<!-- Creator: CorelDRAW -->
<svg xmlns="http://www.w3.org/2000/svg" xml:space="preserve" width="38.3405mm" height="38.3405mm" version="1.1" style="shape-rendering:geometricPrecision; text-rendering:geometricPrecision; image-rendering:optimizeQuality; fill-rule:evenodd; clip-rule:evenodd"
viewBox="0 0 664.75 664.75"
 xmlns:xlink="http://www.w3.org/1999/xlink"
 xmlns:xodm="http://www.corel.com/coreldraw/odm/2003">
 <defs>
  <style type="text/css">
   <![CDATA[
    .str0 {stroke:#00AFEF;stroke-width:18.35;stroke-miterlimit:22.9256}
    .fil1 {fill:none}
    .fil0 {fill:#373435}
   ]]>
  </style>
 </defs>
 <g id="Layer_x0020_1">
  <metadata id="CorelCorpID_0Corel-Layer"/>
  <path class="fil0" d="M217.18 366.03c10.69,-6.06 6.44,-17 26.66,-20.12 15.16,-2.34 27.79,2.3 33.59,17.1 1.86,4.75 3.11,11.1 4.18,16.11 1.77,8.28 3.32,16.62 4.82,24.95 2.62,14.62 5.18,29.47 7.18,44.19 1.98,14.61 -0.12,28.54 -14.92,34.96 -7.58,3.28 -15.44,5.13 -23.43,2.18 -5.58,-2.05 -10.08,-5.96 -15.35,-8.6 -5.31,-2.65 -10.3,-4.37 -15.85,-6.3 -3.97,-1.38 -7.42,-2.76 -10.23,-6.01 -7.51,-8.64 -11.91,-39.45 -13.84,-50.47 -1.57,-8.93 -2.38,-17.19 -0.2,-26.06 1.8,-7.34 3.02,-11.21 2.69,-19.1 -0.63,-15.06 -2.63,-30.79 -4.28,-45.81 -2.12,-19.29 -12.67,-9.64 -9.84,-36.13 3.35,-31.28 23.04,-58.36 47.63,-76.91 28.25,-21.32 63.79,-32.53 99.11,-32.1 34.35,0.42 68.48,12.19 95.49,33.48 23.49,18.52 42.3,45.16 45.66,75.48 0.77,6.97 1.84,16.14 -3.45,21.66 -4.93,5.14 -5.76,7.03 -6.56,14.62 -1.61,15.3 -3.37,30.88 -4.23,46.23 -0.43,7.73 0.6,10.85 2.72,17.9 2.48,8.28 1.65,16.18 0.18,24.6 -1.78,10.22 -3.32,20.54 -5.28,30.71 -1.02,5.27 -2.31,11.64 -4.91,16.38 -4.92,8.98 -17.46,12.54 -26.39,16.25 -5.24,2.17 -9.88,5.81 -15.17,8.14 -7.58,3.33 -14.86,3.54 -22.85,1.52 -17.25,-4.35 -21.57,-17.34 -19.77,-33.82 1.55,-14.13 4.08,-28.64 6.58,-42.63 2.46,-13.83 5.08,-29.13 9.02,-42.58 4.54,-15.5 14.64,-21.65 30.72,-20.46 8.25,0.61 15.04,2.48 20.24,9.22 3.53,4.57 5.08,8.28 9.83,11.44 4.38,-9.22 6.38,-34.43 5.89,-43.3 -0.06,-1.05 -0.41,-8.68 -0.93,-9.51 -1.83,-1.7 -2.1,-1.54 -3.45,-4.09 -1.17,-2.21 -2.02,-5.48 -2.73,-7.89 -1.25,-4.26 -2.49,-8.49 -3.91,-12.7 -3.92,-11.67 -8.96,-22.83 -15.91,-33.03 -21.98,-32.28 -55.8,-44.3 -93.87,-44.23 -38.33,0.07 -72.41,12.62 -94.29,45.25 -6.74,10.05 -11.69,21.1 -15.34,32.61 -1.25,3.93 -2.32,7.88 -3.35,11.87 -0.47,1.81 -1.13,5 -1.98,6.61 -1.38,2.63 -4.17,4.25 -4.79,5.87 -1.6,4.24 -0.08,19.52 0.29,24 0.71,8.42 1.05,20.57 4.64,28.51zm242.76 -66.42c7.39,-8.26 -0.45,-27.04 -4.32,-34.95 -6.78,-13.86 -18.74,-31.01 -30.87,-40.43 -27.94,-21.68 -53.81,-31.91 -89.79,-32.61 -40.98,-0.81 -80.14,15.24 -107.75,45.69 -9.52,10.49 -18.32,23.63 -22.63,37.23 -2.29,7.2 -4.16,17.77 -0.04,24.84 5.07,-5.64 6.28,-17.63 8.28,-24.48 5.73,-19.58 17.73,-34.3 33.03,-47.48 57.61,-49.64 160.49,-35.59 199.57,31.24 4.16,7.12 6.69,16.67 8.94,24.66 0.91,3.23 3.25,12.36 5.59,16.29zm-181.57 164.1c4.97,-7.77 -10.38,-94.16 -17.16,-100.73 -6.47,-6.27 -20.81,-4.57 -25.36,3.01 -5.45,9.09 6.65,58 8.75,70.2 1.44,8.41 1.96,19.01 5.04,26.86 3.21,8.17 8.79,10.68 17.35,9.34 10.42,-1.63 7.31,-0.9 11.38,-8.67zm125.16 -102.09c-5.53,9.15 -11.44,41.75 -13.31,52.26 -1.19,6.7 -7.38,43.84 -5.35,49.09 1.52,3.94 5.74,7.18 9.56,8.68 5.22,2.04 10.64,1.53 15.31,-1.63 9.6,-6.49 13.85,-54.58 16.08,-66.92 1.76,-9.77 5.21,-25.91 2.74,-35.48 -3.15,-12.18 -15.87,-9.22 -25.02,-6zm-184.55 20.94c-5.72,4.48 -7.89,9.83 -7.56,17.4 0.38,8.73 3.46,18.69 5,27.44 1.21,6.87 2.21,17.06 5.15,23.27 2.72,5.74 7.31,8.04 13.1,9.07 -2.18,-16.73 -9.19,-65.35 -15.7,-77.18zm211.74 77.27c5.58,-1.59 10.3,-4.07 12.8,-9.82 2.76,-6.36 3.67,-17.58 4.9,-24.63 1.5,-8.52 4.44,-18.32 4.66,-26.85 0.18,-6.98 -1.8,-11.99 -7.33,-15.64l-15.04 76.94z"/>
  <circle class="fil1 str0" cx="332.38" cy="332.38" r="323.2"/>
 </g>
</svg>
