<?xml version="1.0" encoding="UTF-8"?>
<!DOCTYPE svg PUBLIC "-//W3C//DTD SVG 1.1//EN" "http://www.w3.org/Graphics/SVG/1.1/DTD/svg11.dtd">
<!-- Creator: CorelDRAW -->
<svg xmlns="http://www.w3.org/2000/svg" xml:space="preserve" width="38.3405mm" height="38.3405mm" version="1.1" style="shape-rendering:geometricPrecision; text-rendering:geometricPrecision; image-rendering:optimizeQuality; fill-rule:evenodd; clip-rule:evenodd"
viewBox="0 0 1132.03 1132.03"
 xmlns:xlink="http://www.w3.org/1999/xlink"
 xmlns:xodm="http://www.corel.com/coreldraw/odm/2003">
 <defs>
  <style type="text/css">
   <![CDATA[
    .str0 {stroke:#00AFEF;stroke-width:31.25;stroke-miterlimit:22.9256}
    .fil1 {fill:none}
    .fil0 {fill:#373435}
   ]]>
  </style>
 </defs>
 <g id="Layer_x0020_1">
  <metadata id="CorelCorpID_0Corel-Layer"/>
  <path class="fil0" d="M370.07 670.18l43.48 -0.79 2.41 44.38 -42.85 1.79 -3.04 -45.39zm420.92 -0.56l43.55 -0.47 1.36 43.73 -44.96 2.54 0.05 -45.8zm-64.74 -0.5l43.93 0.82 1.15 42.94 -45.68 2.86 0.61 -46.61zm-291.22 0.43l270.41 0.09 -0.1 45.18 -269.53 0.57 -0.78 -45.84zm-139.12 1.25l52.55 -1.44 2.2 44.43c-22.03,2.35 -33.85,4.43 -53.48,-3.11l-1.27 -39.88zm448.59 -66.51l91.49 0.5 -0.4 45.25 -91.87 -0.12 0.77 -45.62zm-64.89 -0.53l44.69 2.92 0.12 42.46 -45.79 0.91 0.99 -46.28zm-66.42 1.21l45.24 -0.5 -0.29 46.19 -45.17 -2.3 0.21 -43.39zm-64.5 -0.44l44.55 0.63 -0.53 44.86 -44.86 -0.54 0.84 -44.95zm-65.2 -0.83l44.5 2.73 -0.13 42.82 -45.58 0.94 1.21 -46.48zm-65.99 1.72l45.05 -0.92 -0.82 46.16 -44.96 -2.62 0.74 -42.61zm-121.12 -0.72l100.49 0.18 -0.27 45.49 -100.87 -2.44 0.65 -43.23zm475.75 -66.23l64.47 1.09 -2.05 45.04 -61.52 0.09 -0.89 -46.22zm-65.83 1.4l45.48 0.89 -0.77 43.11 -44.24 -0.91 -0.46 -43.1zm-65.04 -0.72l46.41 0.2 -2.89 45.1 -42.93 -0.19 -0.58 -45.11zm-65.8 -1l46.38 2.5 -2.21 43.23 -43.12 0.77 -1.05 -46.5zm-130.87 1.09l46.79 -0.03 -3.03 45.53 -42.95 -0.66 -0.82 -44.85zm-65.02 -0.7l46.42 1.82 -2.23 43.89 -43.07 0.34 -1.12 -46.04zm131.35 0.1l45.53 0.25 -0.5 45.6 -45.52 0.17 0.49 -46.02zm-215.18 -0.24l64.19 0.45 -0.29 45.79 -63.87 0.02 -0.02 -46.27zm365.46 -64.24l43.03 -1.06 -0.81 46.15 -43.11 -0.28 0.89 -44.81zm-129.12 -0.78l42.54 1.09 -2.31 45.22 -43.62 -2.41 3.39 -43.89zm-234.87 0.37l81.07 0.18 -2.38 45.57 -79.68 -0.67 1 -45.07zm495.69 -0.23l42.25 -0.07 1.27 45.88 -46.79 -0.93 3.27 -44.88zm-67.74 0.36l46.14 -0.11 -0.42 45.86 -45.76 -0.76 0.04 -44.99zm-128.3 0.01l42.27 -0.74 1.29 46.68 -46.44 -1.88 2.88 -44.06zm-133.3 -0.38l46.15 0.36 -0.37 45.53 -45.61 -0.01 -0.17 -45.87zm-63.04 0.09l42.16 -0.22 1.37 46.05 -46.42 -1.35 2.89 -44.48zm434.96 -19.99l-68.05 -0.33c-10.32,-1.68 -8.96,-2.51 -14.44,-5.29l0.2 -31.35 82.27 4.07 0.02 32.9zm-147.47 -35.39l46.22 -0.22 -1.62 36.01 -44.62 -2.16 0.01 -33.62zm-65.88 -1.04l46.34 1.72 -0.64 34.35 -45.34 0.32 -0.37 -36.4zm-64.82 0.26l45.68 -0.2 -0.89 36.83 -44.44 -0.53 -0.36 -36.11zm-66.15 0.88l46.56 -0.63 -0.99 36.36 -44.94 -2.18 -0.63 -33.55zm-64.76 -0.84l45.82 1.35 0.04 34.87 -45.72 -0.56 -0.14 -35.67zm-19.96 -0.05l-0.65 30.56c-17.81,9.26 -17.87,6.21 -44.48,5.53l-0.48 -36.23 45.61 0.15zm-109.87 2.07l45.33 -2.02 -1.1 36.89 -44.98 -2.75 0.75 -32.12zm-7.34 311.65c12.19,4.08 541.23,14.24 558.94,-5.78 12.29,-21.31 14.71,-275.13 5.72,-305.56 -10.91,-36.95 -94.68,-22.23 -132.85,-22.23l-317.83 0c-72.33,-0.01 -120.8,-12.32 -126.99,27.33 -5.08,32.58 -0.49,117.92 -0.46,155.99 0.03,43.1 -12.58,123.46 13.48,150.25z"/>
  <circle class="fil1 str0" cx="566.01" cy="566.02" r="550.39"/>
 </g>
</svg>
