<?xml version="1.0" encoding="UTF-8"?>
<!DOCTYPE svg PUBLIC "-//W3C//DTD SVG 1.1//EN" "http://www.w3.org/Graphics/SVG/1.1/DTD/svg11.dtd">
<!-- Creator: CorelDRAW -->
<svg xmlns="http://www.w3.org/2000/svg" xml:space="preserve" width="38.3405mm" height="38.3405mm" version="1.1" style="shape-rendering:geometricPrecision; text-rendering:geometricPrecision; image-rendering:optimizeQuality; fill-rule:evenodd; clip-rule:evenodd"
viewBox="0 0 3810.68 3810.68"
 xmlns:xlink="http://www.w3.org/1999/xlink"
 xmlns:xodm="http://www.corel.com/coreldraw/odm/2003">
 <defs>
  <style type="text/css">
   <![CDATA[
    .str0 {stroke:#00AFEF;stroke-width:105.19;stroke-miterlimit:22.9256}
    .fil1 {fill:none}
    .fil0 {fill:#373435}
   ]]>
  </style>
 </defs>
 <g id="Layer_x0020_1">
  <metadata id="CorelCorpID_0Corel-Layer"/>
  <path class="fil0" d="M1646.56 1550.64c23.86,-215.38 123.14,-438.03 263.4,-501.06 141.91,85.39 234.65,269.85 259.37,503.04 -99.16,-17.81 -164.56,-34.33 -271.48,-33.46 -99.92,0.82 -163.9,22.62 -251.3,31.49zm432 1295.18l-1.67 5.97c38.62,-104.37 -35.75,-80.25 -124.76,-82.04l-4.43 -632.98c95.51,-7.91 290.13,17.14 356.33,-15.27l3.99 -54.21c-48.81,-21.22 -739.14,-22.46 -795.28,-2.76 -39.1,136.41 174.34,34.25 355.84,76l0.07 627.27c-94.71,10.57 -148.05,-31.53 -137.92,68.67 56.32,27.01 267.92,15.99 347.85,9.33zm128.05 -480.15c15.93,-55.02 110.88,-32.7 161.13,-32.65 62.23,0.06 125.49,-3.03 187.21,3.03 -23.22,56.34 -82.02,40.82 -151.06,40.6l-156.96 0.02c-54.52,-5.51 32.11,6.38 -21.5,-3.85l-18.82 -7.16zm-35.03 487.89c76.23,-17.37 55.96,-18.11 90.34,-184.53 14.53,-70.39 22.88,-145.89 46.66,-215.76 173.27,0.62 130.63,-22.9 164.73,144.34 17.22,84.47 35.53,190.55 56.49,248.7 121.23,-0.36 41.35,-135.02 -1.77,-384.27l99.33 -72.35c17.01,-80.99 25.11,-474.39 1.35,-538.08l-55.32 -5.63c-33.78,83.63 -3.46,297.9 -16.71,406.94 -80.77,3.37 -294.34,-9.57 -355.25,5.93 -48.11,12.23 -72.28,48.55 -76.54,107.24 -6.61,91.04 14.38,84.17 93.4,88.85 0.79,113.99 -90.72,307.62 -46.71,398.61zm-561.78 -487.89c-43.39,23.1 -134.76,10.8 -193.78,11 -72.48,0.21 -138,16.42 -153.6,-43.53l105.41 -0.14c140.93,-0.12 222.23,-21.96 241.97,32.67zm-373.87 487.16c76.69,-15.24 58.62,-19.69 91.08,-179.13 15.26,-74.91 27.44,-144.16 46.21,-219.82l135.11 1.07c67.55,250.03 32.08,400.67 149.22,388.04 10.38,-107.05 -51.01,-266.97 -61.3,-380.95 57.17,-25.52 96.6,11.46 95.6,-83.58 -0.68,-64.12 -19.33,-105.34 -73.92,-119.4 -86.89,-22.39 -262.88,9.24 -362.43,-9.61 -5.32,-83.9 19.32,-348.39 -20.18,-400.31 -93.63,-6.42 -60.09,119.9 -60.15,323.75 -0.05,131.16 -20.78,209.45 71.31,264.96l40.45 24.18c-14.39,109.53 -88.91,301.53 -51.01,390.79zm1016.95 -1300.27c-26.07,-152.21 -67.22,-329.27 -163.82,-449.86l-39.48 -53.54c220.49,25.06 482.84,152.26 610.52,313.35 102.49,129.33 64.55,106.42 109.85,178.39 -42.94,6.84 -192.35,-23.26 -269.79,-21.55 -93.92,2.09 -172.27,30.22 -247.28,33.22zm-1206.48 -8.08c77.69,-230.73 404.13,-473.51 720.34,-494.56 -51.5,104.51 -136.49,101.22 -202.47,500.29 -31.5,4.41 -186.79,-29.82 -256.6,-30.94 -101.46,-1.62 -178.17,23.51 -261.28,25.21zm-104.2 94.69c67.02,21.81 128.88,-16.84 211.16,-29.95 288.67,-46.01 386.12,60.69 488.84,31.99 71.94,-20.1 144.72,-43.77 223.69,-39.02 7.53,63.36 3.17,143.86 2.97,209.32 -0.27,88.8 -28.81,170.89 62.09,164.29 35.12,-62.48 15.73,-279.87 17.5,-371.59 82.92,-7.38 157.32,17.94 228.09,38.1 64.86,18.47 142.63,-22.35 216.13,-34.07 267.82,-42.66 378.17,55.51 475.49,36.43 7.02,-178.43 -163.51,-365.99 -260.67,-446.36 -57.02,-47.18 -141.06,-100.77 -224.18,-137.58 -153.54,-67.96 -341.77,-107.7 -510.01,-103.54 -397.25,9.83 -882.5,268.61 -931.11,681.98z"/>
  <ellipse class="fil1 str0" cx="1905.34" cy="1905.34" rx="1852.74" ry="1852.75"/>
 </g>
</svg>
