<?xml version="1.0" encoding="UTF-8"?>
<!DOCTYPE svg PUBLIC "-//W3C//DTD SVG 1.1//EN" "http://www.w3.org/Graphics/SVG/1.1/DTD/svg11.dtd">
<!-- Creator: CorelDRAW -->
<svg xmlns="http://www.w3.org/2000/svg" xml:space="preserve" width="38.3405mm" height="38.3405mm" version="1.1" style="shape-rendering:geometricPrecision; text-rendering:geometricPrecision; image-rendering:optimizeQuality; fill-rule:evenodd; clip-rule:evenodd"
viewBox="0 0 2789.19 2789.19"
 xmlns:xlink="http://www.w3.org/1999/xlink"
 xmlns:xodm="http://www.corel.com/coreldraw/odm/2003">
 <defs>
  <style type="text/css">
   <![CDATA[
    .str0 {stroke:#00AFEF;stroke-width:76.99;stroke-miterlimit:22.9256}
    .fil1 {fill:none}
    .fil0 {fill:#373435}
   ]]>
  </style>
 </defs>
 <g id="Layer_x0020_1">
  <metadata id="CorelCorpID_0Corel-Layer"/>
  <path class="fil0" d="M1817.96 1327.54c-9.46,-38.46 8.12,-39.58 39.72,-39.6 25.03,-0.01 58.28,-3.52 81.34,7.01l4.76 2.18 -3.27 33.92 -4.14 1.67c-23.63,9.54 -90.4,9.44 -114.03,-0.12l-3.48 -1.4 -0.9 -3.65zm-175.89 143.41c25.4,-13.6 39.39,1.24 43.12,26.12 2.95,19.79 0.49,39.01 0.46,58.75 -0.04,33.12 -8.17,46.62 -43.19,37.42l-5.33 -1.4 -2.15 -73.91 -0.71 -10.21 4.45 -34.98 3.35 -1.8zm121.77 -13.79c-4.47,-8.38 -11.15,-13.39 -14.59,-22.28 -3.8,-9.82 -3.93,-6.14 -0.98,-17.3 6.3,-23.82 24.56,-21.8 41.44,-10.2 9.97,6.85 23.21,21.47 31.55,26.07l2.17 1.2 1 2.26c5.48,12.35 10.13,11.08 18.04,20.6 26.52,31.95 -6.21,69.64 -45.27,29.62 -8.4,-8.62 -18.57,-21.96 -29.73,-26.68l-2.4 -1.01 -1.23 -2.29zm-488.9 -597.14c76.3,-44.29 111.56,-60.3 205.58,-55.82 162.49,7.76 234.17,83.28 340.77,190.54 30.78,30.96 54.23,65.99 48.27,111.36 -3.98,30.21 -19.21,57.65 -21.6,88.15l-0.22 2.81 -2.04 1.95c-12.63,12.01 -22.59,37.01 -31.96,52.3 -72.36,118.06 -234.9,260.59 -381.82,253.22l-1.04 -0.06 -0.99 -0.33c-52.97,-18.17 -67.58,-43.91 -104.52,-80.35 -29.72,-29.32 -65.68,-61.12 -88.08,-96.99 -33.14,11.87 -146.22,59.53 -152.78,74.03 -3.72,8.23 -4.39,19.62 -8.49,29.21 -3.23,7.57 -12.13,18.15 -12.37,25.22 2.27,14.83 39.23,87.54 47.38,104.5 17.67,36.79 37.81,75.15 53.95,112.62 84.09,3.22 293.01,18.74 315.55,113.26 5.32,22.3 4.48,80.92 -5.5,101.35 -31.52,64.53 -163.86,88.71 -228.95,95.02 -101.88,9.9 -397.89,10.95 -400.01,-139.06 -0.5,-35.38 -5.06,-63.96 21.49,-91.61 36.09,-37.58 95.51,-56.07 146.45,-65.39 -8.13,-26.63 -27.8,-65.09 -38.72,-87.99 -16.83,-35.27 -34.25,-70.36 -52.07,-105.14 -6.8,-13.28 -27.83,-29.77 -38.14,-42.99 -20.05,-25.72 -24.31,-53.73 -18.05,-85.42 6.04,-30.58 27.23,-58.72 54.35,-73.88 37.86,-21.15 66.93,-4.57 100.2,-19.83 52.76,-24.2 104.6,-50.65 158.12,-73.13 -10.33,-62.31 -19.08,-105.75 -5.18,-170.78 6.27,-29.31 15.04,-56.34 30.74,-81.99 10.15,-16.58 22.32,-31.52 32.28,-48.25 -11.24,-14.91 -27.86,-19.95 -19.59,-45.61l0.59 -1.82 1.4 -1.3c25.99,-24.17 37.32,-1.45 54.98,12.24zm115.76 558.07c31.8,-153.43 211.38,-331.8 351.18,-388.28l29.99 -12.7c-19.01,-26.64 -65.37,-67.07 -87.72,-84.78 -60.48,-47.92 -139.87,-76.15 -216.82,-78.31 -67.98,-1.91 -141.58,17.26 -186.87,71.08 -70.07,83.27 -76.71,184.66 -43.98,286.07 22.22,68.89 91.67,155.22 147.22,200.83 2.39,1.96 4.66,4.22 7.01,6.09zm-32.44 -480.98c-15.5,-47.66 59.5,-58.3 90.13,-59.35 58.94,-2.01 128.65,13.88 178.51,46.33 24.52,15.95 59.27,34.26 45.93,69.67l-1.4 3.72 -3.88 0.87c-26.46,5.92 -27.27,0.5 -44.65,-14.88 -45.49,-40.28 -97.88,-56.53 -157.97,-53.46 -21.11,1.08 -41.39,4.5 -62.1,8.41 -10.05,1.9 -30.08,6.5 -39.79,3.42l-3.6 -1.13 -1.17 -3.6zm307.63 193.58c6.97,55.96 19.4,89.94 -24.62,136.72 -22.36,23.76 -49.32,35.84 -81.86,36.39 -21.1,0.36 -37.46,-4.72 -56.7,-6.87 -30.24,42.86 -65.74,102.7 -64.64,156.78 94.11,5 201.08,-74.54 262.37,-138.64 54.93,-57.43 133.23,-166.93 112.69,-252.81 -59.75,3.88 -97.91,41.15 -147.25,68.43zm-129.15 122.01c57.27,3.37 91.74,-29.54 85.48,-86.59 -15.69,10.88 -31.11,25.72 -43.8,38.67 -12.11,12.36 -33.17,30.37 -41.68,47.92zm-327.15 27.06l-14.19 -32.96c-22.46,7.01 -47.71,19.56 -68.27,29.41 -26.27,12.59 -52.55,26.15 -79.24,37.74 -33.22,14.43 -25.91,17.66 -65.49,14.86 -39.35,-2.79 -70.05,22.65 -66.75,63.37 1.4,17.29 4.79,23.74 17.43,34.34 19.25,16.14 29.24,28.81 39.97,52.1 30.99,67.28 62.77,134.22 95.56,200.65 14.53,29.44 14.83,44.46 -21.53,51.93 -36.1,7.41 -87.68,15.54 -119,34.93 -34.69,21.48 -38.53,54.25 -30.47,92.22 8.39,39.53 110.5,61.55 144.38,67.35 96.43,16.52 292,15.66 372.48,-44.94 23.77,-17.9 27.08,-76.77 5.79,-97.54 -42.69,-41.66 -163.67,-56.17 -228.86,-59.33 8.74,21.16 25.08,43.18 15.84,65.89l-0.73 1.82 -1.55 1.21c-35.54,27.7 -49.62,-24.81 -60.7,-47.93l-111.51 -232.7c-12.85,-25.24 -36.74,-55 -15.79,-82.95 11.23,-14.96 13.43,-25.37 16.48,-43.05 3.03,-17.51 8.72,-27.01 25.6,-35.02l150.55 -71.4zm-215.38 90.91c18.74,34.41 -18.43,52.41 -37.04,34.16 -21.42,-21.01 1.67,-53.36 33.88,-37.21l2.06 1.03 1.1 2.02zm-81.54 420.1c18.12,-4.21 31.35,2.92 47.04,11.03 25.03,12.94 46.58,21.48 74.36,27.72 86.69,19.47 206.12,18.46 291.13,-7.94 21.62,-6.71 34.74,-14.8 53.96,-25.67 23.01,-13.03 55.86,-4.56 44.04,23.34 -15.12,35.7 -93.6,54.87 -126.49,61.41 -90.77,18.06 -206.98,17.5 -296.24,-7.77 -35.12,-9.94 -104.71,-25.97 -93.32,-76.56l1.02 -4.5 4.5 -1.05z"/>
  <circle class="fil1 str0" cx="1394.6" cy="1394.6" r="1356.1"/>
 </g>
</svg>
