<?xml version="1.0" encoding="UTF-8"?>
<!DOCTYPE svg PUBLIC "-//W3C//DTD SVG 1.1//EN" "http://www.w3.org/Graphics/SVG/1.1/DTD/svg11.dtd">
<!-- Creator: CorelDRAW -->
<svg xmlns="http://www.w3.org/2000/svg" xml:space="preserve" width="38.3405mm" height="38.3405mm" version="1.1" style="shape-rendering:geometricPrecision; text-rendering:geometricPrecision; image-rendering:optimizeQuality; fill-rule:evenodd; clip-rule:evenodd"
viewBox="0 0 1020.96 1020.96"
 xmlns:xlink="http://www.w3.org/1999/xlink"
 xmlns:xodm="http://www.corel.com/coreldraw/odm/2003">
 <defs>
  <style type="text/css">
   <![CDATA[
    .str0 {stroke:#00AFEF;stroke-width:28.18;stroke-miterlimit:22.9256}
    .fil1 {fill:none}
    .fil0 {fill:#373435}
   ]]>
  </style>
 </defs>
 <g id="Layer_x0020_1">
  <metadata id="CorelCorpID_0Corel-Layer"/>
  <path class="fil0" d="M529.73 679.33c17.58,-29.87 40.53,-35.13 52.05,-87.03 4.7,-21.17 4.19,-41.78 7.35,-62.4 2.08,-13.52 5.7,-29.24 14.82,-40.3 8.11,-9.83 2.27,-4.2 10.88,-9.65 71.02,85.27 37.97,187.21 -85.1,199.37zm126.88 -218.94c23.84,10.13 26.72,20.12 25.69,55.04 -0.59,19.81 -1.63,43.28 -12.89,57.41 -7.3,-10.2 -11.1,-41.01 -14.49,-54.52 -8.21,-20.66 -22.69,-38.56 -24.46,-57.31l26.15 -0.61zm-256.44 179.05c7.39,-22.49 181.16,-188.34 189.86,-192.13 10.41,8.74 6.78,5.29 13.39,13.96 -15.82,29.59 -26.65,30.73 -31.65,80.04 -4.08,40.25 -4.98,63.08 -23.88,90.69 -45.94,67.11 -91.75,54.33 -147.72,7.44zm203.33 -203.41c6.3,-18.67 19.77,-26.59 31.45,-38.6 14.24,8.84 20.88,17.65 27.02,38.6l-21.1 8.01c-1.77,0.49 -14.46,4 -14.73,4.05 -17.1,3.09 -14.07,0.01 -22.65,-12.05zm-215.65 187.57c-19.78,-12.82 -39.97,-46.96 -44.73,-80.32 -4.61,-32.37 27.41,-55.86 46.62,-69.5 30.07,-21.35 53.14,-19.99 94.89,-24.55 69.81,-7.62 56.03,-36.73 87.16,-24.67 3.39,15.81 -2.77,18.49 -13.59,29.11l-170.35 169.93zm-45.91 -132.26c14.85,-137.1 133.37,-146.79 199.59,-85.07 -10.01,17.65 -28.02,22.95 -48.96,25.99 -21.06,3.06 -42.42,2.75 -63.33,7.28 -52.62,11.42 -56.52,36.58 -87.3,51.8zm228.57 -84.06c8.53,-29.94 6.58,-21.77 7.01,-53.57 21.95,10.09 34.85,15.63 46.99,33.93 -10.81,10.42 -20.71,24.3 -38.57,31.71l-15.44 -12.07zm-11.46 -15.63c-18.99,-3.05 -29.97,-15.06 -50.4,-23.2 -14.71,-5.86 -39.46,-9.86 -53.33,-16.76 31.33,-20.33 119.78,-27.13 103.73,39.96zm133.13 163.93c13.61,-87.98 -5.67,-111.9 -38.29,-166.11 -28.38,-24.76 -45.28,-46.73 -96.03,-59.77 -48.45,-12.45 -100.86,-3.91 -136.35,16.73 -175.12,101.88 -96.15,359.95 99.21,350.4 93.92,-4.59 148.83,-65.51 171.46,-141.24z"/>
  <circle class="fil1 str0" cx="510.48" cy="510.48" r="496.39"/>
 </g>
</svg>
