<?xml version="1.0" encoding="UTF-8"?>
<!DOCTYPE svg PUBLIC "-//W3C//DTD SVG 1.1//EN" "http://www.w3.org/Graphics/SVG/1.1/DTD/svg11.dtd">
<!-- Creator: CorelDRAW -->
<svg xmlns="http://www.w3.org/2000/svg" xml:space="preserve" width="38.3405mm" height="38.3405mm" version="1.1" style="shape-rendering:geometricPrecision; text-rendering:geometricPrecision; image-rendering:optimizeQuality; fill-rule:evenodd; clip-rule:evenodd"
viewBox="0 0 623.71 623.71"
 xmlns:xlink="http://www.w3.org/1999/xlink"
 xmlns:xodm="http://www.corel.com/coreldraw/odm/2003">
 <defs>
  <style type="text/css">
   <![CDATA[
    .str0 {stroke:#00AFEF;stroke-width:17.22;stroke-miterlimit:22.9256}
    .fil1 {fill:none}
    .fil0 {fill:#373435}
   ]]>
  </style>
 </defs>
 <g id="Layer_x0020_1">
  <metadata id="CorelCorpID_0Corel-Layer"/>
  <path class="fil0" d="M239.63 328.04c41.17,-21.62 104.85,-23.73 144.24,-0.19l0.78 36.22 -144.6 -0.08 -0.41 -35.95zm-52.09 94.78c-2.82,-25 2.72,-61.9 -2.29,-84.4 -4.24,-19.02 -31.19,-43.6 -11.81,-64.45 14.93,-16.05 50.36,-11.21 52.75,16.58 2.21,25.65 -0.29,59.66 0.27,86.67l171.56 -0.63c-0.07,-20.95 -2.58,-72.12 0.62,-89.71 4.59,-25.25 41.75,-28.83 54.17,-9.73 14.55,22.38 -9.87,42.31 -13.97,61.54 -5.08,23.83 1.82,58.98 -2.56,84.5 -39.98,0.17 -32.22,2.21 -41.44,-12.94l-160.82 0.03c-8.87,3.36 -7.12,4.54 -12.24,13.07l-34.24 -0.54zm52.11 -111.62c-1.94,-71.04 -20.15,-34.29 -20.18,-66.26 -0.06,-60.75 154.68,-53.74 180.05,-19.18 4.71,6.41 6.46,15.6 4.93,24.77 -4.21,25.1 -15.65,-7.55 -20.26,60.78 -62.13,-19.61 -82.57,-16.17 -144.55,-0.1zm-68.52 29.24c5.68,11.57 1.92,76.02 2.86,95.64 87.71,4.92 45.85,-8.95 69,-12.67l143.49 0.06c11.26,16.72 4.66,14.96 63.83,12.8 0.91,-21.6 0.37,-44.27 0.3,-65.98 -0.09,-32.97 -0.47,-26.91 12.62,-51.8 12.83,-24.4 7.89,-56.55 -20.4,-64.31 -6.35,-1.74 -21.14,-1.54 -25,-6.41 -1.03,-54.96 -64.5,-62.21 -109.08,-61.65 -45.69,0.57 -103.07,8.69 -101.95,65.61 -88.39,4.33 -40.74,73.32 -35.67,88.72z"/>
  <circle class="fil1 str0" cx="311.85" cy="311.85" r="303.25"/>
 </g>
</svg>
